<svg xmlns="http://www.w3.org/2000/svg" width="980" height="982" viewBox="0 0 980 982">
  <g fill="#F2DB10">
    <path d="M826.9,420.1 C809.3,420.1 796.3,434.4 796.3,452 L796.3,484 L796.3,771.6 L796.3,842.8 C796.3,884.8 763.8,920.6 721.9,920.6 L152,920.6 C110.1,920.6 61.3,884.9 61.3,842.8 L61.3,271 C61.3,228.9 110.1,184.1 152,184.1 L191.1,184.1 L382.2,184.1 L477.7,184.1 C495.3,184.1 509.6,171.1 509.6,153.4 C509.6,135.7 495.4,122.7 477.7,122.7 L382.2,122.7 L191.1,122.7 L152,122.7 C68.2,122.7 0,186.8 0,270.9 L0,842.7 C0,926.8 68.2,981.8 152,981.8 L721.9,981.8 C805.7,981.8 857.6,926.8 857.6,842.7 L857.6,771.5 L857.6,484 L857.6,452 C857.5,434.4 844.5,420.1 826.9,420.1 Z"/>
    <path d="M952.4,73.6 L905.7,26.8 C870.2,-8.8 807.8,-8.8 772.3,26.8 L684.1,130.6 L214.4,581.2 L214.4,592.2 L214,594.1 L154.9,794.8 L198.3,833.6 L387.9,766.6 L390.3,767.1 L399.6,767.1 L848.9,295.8 L952.5,211.1 C989.2,174.3 989.2,110.5 952.4,73.6 Z M238.4,750.7 L266,662.7 L321.2,718 L238.4,750.7 Z M377.2,685 L296,603.6 L716.1,185 L794.6,263.8 L377.2,685 Z M908,162.8 L845.4,225.5 L754.3,134.1 L816.9,71.4 C822.8,65.5 830.7,62.2 839.1,62.2 C847.6,62.2 855.4,65.5 861.4,71.4 L908,118.2 C920.2,130.5 920.2,150.5 908,162.8 Z"/>
  </g>
</svg>
